<mxfile host="65bd71144e">
    <diagram id="DSKwdv4jVhnjZPz99YUp" name="Page-1">
        <mxGraphModel dx="688" dy="614" grid="1" gridSize="10" guides="1" tooltips="1" connect="1" arrows="1" fold="1" page="1" pageScale="1" pageWidth="850" pageHeight="1100" math="0" shadow="0">
            <root>
                <mxCell id="0"/>
                <mxCell id="1" parent="0"/>
                <mxCell id="153" style="edgeStyle=orthogonalEdgeStyle;html=1;exitX=0.5;exitY=0;exitDx=0;exitDy=0;entryX=0.5;entryY=0;entryDx=0;entryDy=0;fontColor=#000000;labelBackgroundColor=#FFFFFF;" edge="1" parent="1" source="8" target="113">
                    <mxGeometry relative="1" as="geometry">
                        <Array as="points">
                            <mxPoint x="471" y="270"/>
                            <mxPoint x="1040" y="270"/>
                        </Array>
                    </mxGeometry>
                </mxCell>
                <mxCell id="154" value="Create New Timesheet" style="edgeLabel;html=1;align=center;verticalAlign=middle;resizable=0;points=[];fontColor=#000000;labelBackgroundColor=#FFFFFF;" vertex="1" connectable="0" parent="153">
                    <mxGeometry x="0.034" relative="1" as="geometry">
                        <mxPoint as="offset"/>
                    </mxGeometry>
                </mxCell>
                <mxCell id="8" value="IBB Innovations Timesheet" style="swimlane;childLayout=stackLayout;resizeParent=1;resizeParentMax=0;horizontal=1;startSize=20;horizontalStack=0;fontColor=#000000;strokeColor=#000000;fillColor=#FFFFFF;" vertex="1" parent="1">
                    <mxGeometry x="221" y="303" width="499" height="440" as="geometry"/>
                </mxCell>
                <mxCell id="9" value="Table" style="swimlane;startSize=20;horizontal=0;fontColor=#000000;strokeColor=#000000;fillColor=#FFFFFF;" vertex="1" parent="8">
                    <mxGeometry y="20" width="499" height="160" as="geometry"/>
                </mxCell>
                <mxCell id="20" value="" style="edgeStyle=none;html=1;fontColor=#FFFFFF;" edge="1" parent="9" source="16" target="19">
                    <mxGeometry relative="1" as="geometry"/>
                </mxCell>
                <mxCell id="16" value="TimeSheetsHead" style="text;html=1;align=center;verticalAlign=middle;resizable=0;points=[];autosize=1;strokeColor=none;fillColor=none;fontColor=#000000;labelBackgroundColor=#FFFFFF;" vertex="1" parent="9">
                    <mxGeometry x="203" y="9" width="110" height="20" as="geometry"/>
                </mxCell>
                <mxCell id="25" value="" style="edgeStyle=none;html=1;fontColor=#000000;" edge="1" parent="9" source="19" target="24">
                    <mxGeometry relative="1" as="geometry"/>
                </mxCell>
                <mxCell id="35" style="edgeStyle=orthogonalEdgeStyle;html=1;exitX=0;exitY=0.5;exitDx=0;exitDy=0;entryX=0.5;entryY=0;entryDx=0;entryDy=0;fontColor=#000000;" edge="1" parent="9" source="19" target="30">
                    <mxGeometry relative="1" as="geometry"/>
                </mxCell>
                <mxCell id="36" style="edgeStyle=orthogonalEdgeStyle;html=1;exitX=1;exitY=0.5;exitDx=0;exitDy=0;entryX=0.5;entryY=0;entryDx=0;entryDy=0;fontColor=#000000;" edge="1" parent="9" source="19" target="31">
                    <mxGeometry relative="1" as="geometry"/>
                </mxCell>
                <mxCell id="37" style="edgeStyle=orthogonalEdgeStyle;html=1;exitX=1;exitY=0.5;exitDx=0;exitDy=0;fontColor=#000000;" edge="1" parent="9" source="19" target="32">
                    <mxGeometry relative="1" as="geometry"/>
                </mxCell>
                <mxCell id="19" value="Fields" style="rounded=1;whiteSpace=wrap;html=1;fontColor=#000000;strokeColor=#000000;fillColor=#FFFFFF;" vertex="1" parent="9">
                    <mxGeometry x="228" y="40" width="62" height="39" as="geometry"/>
                </mxCell>
                <mxCell id="24" value="Week No." style="whiteSpace=wrap;html=1;fillColor=#FFFFFF;strokeColor=#000000;fontColor=#000000;rounded=1;" vertex="1" parent="9">
                    <mxGeometry x="221" y="94.5" width="77" height="25.5" as="geometry"/>
                </mxCell>
                <mxCell id="28" value="Name" style="whiteSpace=wrap;html=1;fillColor=#FFFFFF;strokeColor=#000000;fontColor=#000000;rounded=1;" vertex="1" parent="9">
                    <mxGeometry x="29" y="92" width="81" height="28" as="geometry"/>
                </mxCell>
                <mxCell id="29" value="" style="edgeStyle=orthogonalEdgeStyle;html=1;fontColor=#000000;" edge="1" parent="9" source="19" target="28">
                    <mxGeometry relative="1" as="geometry"/>
                </mxCell>
                <mxCell id="30" value="Creating Date" style="whiteSpace=wrap;html=1;fillColor=#FFFFFF;strokeColor=#000000;fontColor=#000000;rounded=1;" vertex="1" parent="9">
                    <mxGeometry x="120" y="91.5" width="83" height="28.5" as="geometry"/>
                </mxCell>
                <mxCell id="31" value="Open" style="whiteSpace=wrap;html=1;fillColor=#FFFFFF;strokeColor=#000000;fontColor=#000000;rounded=1;" vertex="1" parent="9">
                    <mxGeometry x="315" y="95" width="77" height="25.5" as="geometry"/>
                </mxCell>
                <mxCell id="32" value="Closed" style="whiteSpace=wrap;html=1;fillColor=#FFFFFF;strokeColor=#000000;fontColor=#000000;rounded=1;" vertex="1" parent="9">
                    <mxGeometry x="403" y="95" width="77" height="25.5" as="geometry"/>
                </mxCell>
                <mxCell id="110" style="edgeStyle=orthogonalEdgeStyle;html=1;exitX=0;exitY=0.5;exitDx=0;exitDy=0;entryX=0;entryY=0.5;entryDx=0;entryDy=0;fontColor=#000000;" edge="1" parent="8" source="11" target="9">
                    <mxGeometry relative="1" as="geometry">
                        <Array as="points">
                            <mxPoint x="-51" y="240"/>
                            <mxPoint x="-51" y="100"/>
                        </Array>
                    </mxGeometry>
                </mxCell>
                <mxCell id="111" value="SourceTable" style="edgeLabel;html=1;align=center;verticalAlign=middle;resizable=0;points=[];fontColor=#000000;labelBackgroundColor=#FFFFFF;" vertex="1" connectable="0" parent="110">
                    <mxGeometry x="0.0959" y="-1" relative="1" as="geometry">
                        <mxPoint as="offset"/>
                    </mxGeometry>
                </mxCell>
                <mxCell id="11" value="Page" style="swimlane;startSize=20;horizontal=0;fontColor=#000000;strokeColor=#000000;fillColor=#FFFFFF;" vertex="1" parent="8">
                    <mxGeometry y="180" width="499" height="140" as="geometry"/>
                </mxCell>
                <mxCell id="84" value="Manage Timesheet" style="text;html=1;align=center;verticalAlign=middle;resizable=0;points=[];autosize=1;strokeColor=none;fillColor=none;fontColor=#000000;labelBackgroundColor=#FFFFFF;" vertex="1" parent="11">
                    <mxGeometry x="198" y="4.25" width="120" height="20" as="geometry"/>
                </mxCell>
                <mxCell id="85" value="" style="edgeStyle=none;html=1;fontColor=#FFFFFF;" edge="1" source="84" target="86" parent="11">
                    <mxGeometry relative="1" as="geometry"/>
                </mxCell>
                <mxCell id="112" style="edgeStyle=orthogonalEdgeStyle;html=1;exitX=0.5;exitY=1;exitDx=0;exitDy=0;entryX=0.5;entryY=0;entryDx=0;entryDy=0;fontColor=#000000;" edge="1" parent="11" source="86" target="91">
                    <mxGeometry relative="1" as="geometry"/>
                </mxCell>
                <mxCell id="86" value="Fields" style="rounded=1;whiteSpace=wrap;html=1;fontColor=#000000;strokeColor=#000000;fillColor=#FFFFFF;" vertex="1" parent="11">
                    <mxGeometry x="228" y="35.25" width="62" height="39" as="geometry"/>
                </mxCell>
                <mxCell id="87" style="edgeStyle=orthogonalEdgeStyle;html=1;exitX=1;exitY=0.5;exitDx=0;exitDy=0;fontColor=#000000;" edge="1" source="86" target="90" parent="11">
                    <mxGeometry relative="1" as="geometry"/>
                </mxCell>
                <mxCell id="88" style="edgeStyle=orthogonalEdgeStyle;html=1;exitX=1;exitY=0.5;exitDx=0;exitDy=0;entryX=0.5;entryY=0;entryDx=0;entryDy=0;fontColor=#000000;" edge="1" source="86" target="89" parent="11">
                    <mxGeometry relative="1" as="geometry"/>
                </mxCell>
                <mxCell id="89" value="Open" style="whiteSpace=wrap;html=1;fillColor=#FFFFFF;strokeColor=#000000;fontColor=#000000;rounded=1;" vertex="1" parent="11">
                    <mxGeometry x="315" y="90.25" width="77" height="25.5" as="geometry"/>
                </mxCell>
                <mxCell id="90" value="Closed" style="whiteSpace=wrap;html=1;fillColor=#FFFFFF;strokeColor=#000000;fontColor=#000000;rounded=1;" vertex="1" parent="11">
                    <mxGeometry x="403" y="90.25" width="77" height="25.5" as="geometry"/>
                </mxCell>
                <mxCell id="91" value="Week No." style="whiteSpace=wrap;html=1;fillColor=#FFFFFF;strokeColor=#000000;fontColor=#000000;rounded=1;" vertex="1" parent="11">
                    <mxGeometry x="221" y="89.75" width="77" height="25.5" as="geometry"/>
                </mxCell>
                <mxCell id="92" value="Creating Date" style="whiteSpace=wrap;html=1;fillColor=#FFFFFF;strokeColor=#000000;fontColor=#000000;rounded=1;" vertex="1" parent="11">
                    <mxGeometry x="120" y="86.75" width="83" height="28.5" as="geometry"/>
                </mxCell>
                <mxCell id="93" value="Name" style="whiteSpace=wrap;html=1;fillColor=#FFFFFF;strokeColor=#000000;fontColor=#000000;rounded=1;" vertex="1" parent="11">
                    <mxGeometry x="29" y="87.25" width="81" height="28" as="geometry"/>
                </mxCell>
                <mxCell id="94" value="" style="edgeStyle=orthogonalEdgeStyle;html=1;fontColor=#000000;" edge="1" source="86" target="93" parent="11">
                    <mxGeometry relative="1" as="geometry"/>
                </mxCell>
                <mxCell id="95" style="edgeStyle=orthogonalEdgeStyle;html=1;exitX=0;exitY=0.5;exitDx=0;exitDy=0;entryX=0.5;entryY=0;entryDx=0;entryDy=0;fontColor=#000000;" edge="1" source="86" target="92" parent="11">
                    <mxGeometry relative="1" as="geometry"/>
                </mxCell>
                <mxCell id="96" value="Enum" style="swimlane;startSize=20;horizontal=0;fontColor=#000000;strokeColor=#000000;fillColor=#FFFFFF;" vertex="1" parent="8">
                    <mxGeometry y="320" width="499" height="120" as="geometry"/>
                </mxCell>
                <mxCell id="97" value="IBB Status Timesheet" style="text;html=1;align=center;verticalAlign=middle;resizable=0;points=[];autosize=1;strokeColor=none;fillColor=none;fontColor=#000000;labelBackgroundColor=#FFFFFF;" vertex="1" parent="96">
                    <mxGeometry x="193" y="4.25" width="130" height="20" as="geometry"/>
                </mxCell>
                <mxCell id="98" value="" style="edgeStyle=none;html=1;fontColor=#FFFFFF;" edge="1" parent="96" source="97" target="99">
                    <mxGeometry relative="1" as="geometry"/>
                </mxCell>
                <mxCell id="99" value="Value" style="rounded=1;whiteSpace=wrap;html=1;fontColor=#000000;strokeColor=#000000;fillColor=#FFFFFF;" vertex="1" parent="96">
                    <mxGeometry x="228" y="35.25" width="62" height="39" as="geometry"/>
                </mxCell>
                <mxCell id="101" style="edgeStyle=orthogonalEdgeStyle;html=1;exitX=1;exitY=0.5;exitDx=0;exitDy=0;entryX=0.5;entryY=0;entryDx=0;entryDy=0;fontColor=#000000;" edge="1" parent="96" source="99" target="102">
                    <mxGeometry relative="1" as="geometry"/>
                </mxCell>
                <mxCell id="102" value="&lt;span&gt;Closed&lt;/span&gt;" style="whiteSpace=wrap;html=1;fillColor=#FFFFFF;strokeColor=#000000;fontColor=#000000;rounded=1;" vertex="1" parent="96">
                    <mxGeometry x="315" y="90.25" width="77" height="25.5" as="geometry"/>
                </mxCell>
                <mxCell id="105" value="Open" style="whiteSpace=wrap;html=1;fillColor=#FFFFFF;strokeColor=#000000;fontColor=#000000;rounded=1;" vertex="1" parent="96">
                    <mxGeometry x="120" y="86.75" width="83" height="28.5" as="geometry"/>
                </mxCell>
                <mxCell id="108" style="edgeStyle=orthogonalEdgeStyle;html=1;exitX=0;exitY=0.5;exitDx=0;exitDy=0;entryX=0.5;entryY=0;entryDx=0;entryDy=0;fontColor=#000000;" edge="1" parent="96" source="99" target="105">
                    <mxGeometry relative="1" as="geometry"/>
                </mxCell>
                <mxCell id="113" value="IBB Innovations Users Timesheet" style="swimlane;childLayout=stackLayout;resizeParent=1;resizeParentMax=0;horizontal=1;startSize=20;horizontalStack=0;fontColor=#000000;strokeColor=#000000;fillColor=#FFFFFF;labelBackgroundColor=#FFFFFF;" vertex="1" parent="1">
                    <mxGeometry x="790" y="303" width="610" height="940" as="geometry"/>
                </mxCell>
                <mxCell id="114" value="Table" style="swimlane;startSize=20;horizontal=0;fontColor=#000000;strokeColor=#000000;fillColor=#FFFFFF;" vertex="1" parent="113">
                    <mxGeometry y="20" width="610" height="160" as="geometry"/>
                </mxCell>
                <mxCell id="115" value="" style="edgeStyle=none;html=1;fontColor=#FFFFFF;" edge="1" parent="114" source="116" target="121">
                    <mxGeometry relative="1" as="geometry"/>
                </mxCell>
                <mxCell id="116" value="TimeSheetsLine" style="text;html=1;align=center;verticalAlign=middle;resizable=0;points=[];autosize=1;strokeColor=none;fillColor=none;fontColor=#000000;labelBackgroundColor=#FFFFFF;" vertex="1" parent="114">
                    <mxGeometry x="208" y="9" width="100" height="20" as="geometry"/>
                </mxCell>
                <mxCell id="118" style="edgeStyle=orthogonalEdgeStyle;html=1;exitX=0;exitY=0.5;exitDx=0;exitDy=0;entryX=0.5;entryY=0;entryDx=0;entryDy=0;fontColor=#000000;" edge="1" parent="114" source="121" target="125">
                    <mxGeometry relative="1" as="geometry"/>
                </mxCell>
                <mxCell id="419" value="Enum" style="edgeLabel;html=1;align=center;verticalAlign=middle;resizable=0;points=[];fontColor=#000000;labelBackgroundColor=#FFFFFF;" vertex="1" connectable="0" parent="118">
                    <mxGeometry x="0.6675" relative="1" as="geometry">
                        <mxPoint as="offset"/>
                    </mxGeometry>
                </mxCell>
                <mxCell id="120" style="edgeStyle=orthogonalEdgeStyle;html=1;exitX=1;exitY=0.5;exitDx=0;exitDy=0;fontColor=#000000;" edge="1" parent="114" source="121" target="127">
                    <mxGeometry relative="1" as="geometry"/>
                </mxCell>
                <mxCell id="202" style="edgeStyle=orthogonalEdgeStyle;html=1;exitX=0;exitY=0.5;exitDx=0;exitDy=0;entryX=0.5;entryY=0;entryDx=0;entryDy=0;fontColor=#FFFFFF;" edge="1" parent="114" source="121" target="122">
                    <mxGeometry relative="1" as="geometry"/>
                </mxCell>
                <mxCell id="203" style="edgeStyle=orthogonalEdgeStyle;html=1;exitX=0.5;exitY=1;exitDx=0;exitDy=0;entryX=0.5;entryY=0;entryDx=0;entryDy=0;fontColor=#FFFFFF;" edge="1" parent="114" source="121" target="126">
                    <mxGeometry relative="1" as="geometry"/>
                </mxCell>
                <mxCell id="209" style="edgeStyle=orthogonalEdgeStyle;html=1;exitX=1;exitY=0.5;exitDx=0;exitDy=0;entryX=0.5;entryY=0;entryDx=0;entryDy=0;fontColor=#FFFFFF;" edge="1" parent="114" source="121" target="201">
                    <mxGeometry relative="1" as="geometry"/>
                </mxCell>
                <mxCell id="211" style="edgeStyle=orthogonalEdgeStyle;html=1;exitX=1;exitY=0.5;exitDx=0;exitDy=0;entryX=0.5;entryY=0;entryDx=0;entryDy=0;fontColor=#FFFFFF;" edge="1" parent="114" source="121" target="206">
                    <mxGeometry relative="1" as="geometry"/>
                </mxCell>
                <mxCell id="212" style="edgeStyle=orthogonalEdgeStyle;html=1;exitX=1;exitY=0.5;exitDx=0;exitDy=0;entryX=0.5;entryY=0;entryDx=0;entryDy=0;fontColor=#FFFFFF;" edge="1" parent="114" source="121" target="207">
                    <mxGeometry relative="1" as="geometry"/>
                </mxCell>
                <mxCell id="213" style="edgeStyle=orthogonalEdgeStyle;html=1;exitX=1;exitY=0.5;exitDx=0;exitDy=0;entryX=0.5;entryY=0;entryDx=0;entryDy=0;fontColor=#FFFFFF;" edge="1" parent="114" source="121" target="205">
                    <mxGeometry relative="1" as="geometry"/>
                </mxCell>
                <mxCell id="121" value="Fields" style="rounded=1;whiteSpace=wrap;html=1;fontColor=#000000;strokeColor=#000000;fillColor=#FFFFFF;" vertex="1" parent="114">
                    <mxGeometry x="227" y="40" width="62" height="39" as="geometry"/>
                </mxCell>
                <mxCell id="122" value="Weeek No." style="whiteSpace=wrap;html=1;fillColor=#FFFFFF;strokeColor=#000000;fontColor=#000000;rounded=1;" vertex="1" parent="114">
                    <mxGeometry x="135" y="92" width="77" height="25.5" as="geometry"/>
                </mxCell>
                <mxCell id="123" value="Name" style="whiteSpace=wrap;html=1;fillColor=#FFFFFF;strokeColor=#000000;fontColor=#000000;rounded=1;" vertex="1" parent="114">
                    <mxGeometry x="29" y="92" width="41" height="28" as="geometry"/>
                </mxCell>
                <mxCell id="124" value="" style="edgeStyle=orthogonalEdgeStyle;html=1;fontColor=#000000;" edge="1" parent="114" source="121" target="123">
                    <mxGeometry relative="1" as="geometry"/>
                </mxCell>
                <mxCell id="125" value="Type" style="whiteSpace=wrap;html=1;fillColor=#FFFFFF;strokeColor=#000000;fontColor=#000000;rounded=1;" vertex="1" parent="114">
                    <mxGeometry x="77" y="91.5" width="50" height="28.5" as="geometry"/>
                </mxCell>
                <mxCell id="126" value="Work Date" style="whiteSpace=wrap;html=1;fillColor=#FFFFFF;strokeColor=#000000;fontColor=#000000;rounded=1;" vertex="1" parent="114">
                    <mxGeometry x="226.5" y="93.25" width="60.5" height="25.5" as="geometry"/>
                </mxCell>
                <mxCell id="127" value="Day" style="whiteSpace=wrap;html=1;fillColor=#FFFFFF;strokeColor=#000000;fontColor=#000000;rounded=1;" vertex="1" parent="114">
                    <mxGeometry x="304" y="95" width="46" height="25.5" as="geometry"/>
                </mxCell>
                <mxCell id="201" value="Time In" style="whiteSpace=wrap;html=1;fillColor=#FFFFFF;strokeColor=#000000;fontColor=#000000;rounded=1;" vertex="1" parent="114">
                    <mxGeometry x="363" y="95" width="47" height="25.5" as="geometry"/>
                </mxCell>
                <mxCell id="207" value="Tasks" style="whiteSpace=wrap;html=1;fillColor=#FFFFFF;strokeColor=#000000;fontColor=#000000;rounded=1;" vertex="1" parent="114">
                    <mxGeometry x="490" y="94.5" width="35" height="25.5" as="geometry"/>
                </mxCell>
                <mxCell id="206" value="Time Out" style="whiteSpace=wrap;html=1;fillColor=#FFFFFF;strokeColor=#000000;fontColor=#000000;rounded=1;" vertex="1" parent="114">
                    <mxGeometry x="420" y="95" width="60" height="25.5" as="geometry"/>
                </mxCell>
                <mxCell id="205" value="Amount of Time" style="whiteSpace=wrap;html=1;fillColor=#FFFFFF;strokeColor=#000000;fontColor=#000000;rounded=1;" vertex="1" parent="114">
                    <mxGeometry x="534" y="92" width="71" height="28.75" as="geometry"/>
                </mxCell>
                <mxCell id="226" style="edgeStyle=orthogonalEdgeStyle;html=1;exitX=0;exitY=0.5;exitDx=0;exitDy=0;entryX=0;entryY=0.25;entryDx=0;entryDy=0;fontColor=#1A1A1A;" edge="1" parent="113" target="114">
                    <mxGeometry relative="1" as="geometry">
                        <mxPoint x="-5" y="325" as="sourcePoint"/>
                        <mxPoint x="-5" y="60" as="targetPoint"/>
                        <Array as="points">
                            <mxPoint x="-35" y="325"/>
                            <mxPoint x="-35" y="60"/>
                        </Array>
                    </mxGeometry>
                </mxCell>
                <mxCell id="231" value="&lt;span style=&quot;color: rgb(0 , 0 , 0)&quot;&gt;SourceTable&lt;/span&gt;" style="edgeLabel;html=1;align=center;verticalAlign=middle;resizable=0;points=[];fontColor=#1A1A1A;labelBackgroundColor=#FFFFFF;" vertex="1" connectable="0" parent="226">
                    <mxGeometry x="0.088" y="1" relative="1" as="geometry">
                        <mxPoint as="offset"/>
                    </mxGeometry>
                </mxCell>
                <mxCell id="130" value="Card Page" style="swimlane;startSize=20;horizontal=0;fontColor=#000000;strokeColor=#000000;fillColor=#FFFFFF;labelBackgroundColor=#FFFFFF;" vertex="1" parent="113">
                    <mxGeometry y="180" width="610" height="380" as="geometry"/>
                </mxCell>
                <mxCell id="131" value="Manage Timesheet" style="text;html=1;align=center;verticalAlign=middle;resizable=0;points=[];autosize=1;strokeColor=none;fillColor=none;fontColor=#000000;labelBackgroundColor=#FFFFFF;" vertex="1" parent="130">
                    <mxGeometry x="227" y="4.25" width="120" height="20" as="geometry"/>
                </mxCell>
                <mxCell id="133" style="edgeStyle=orthogonalEdgeStyle;html=1;exitX=0.5;exitY=1;exitDx=0;exitDy=0;entryX=0.5;entryY=0;entryDx=0;entryDy=0;fontColor=#000000;" edge="1" parent="130" target="139">
                    <mxGeometry relative="1" as="geometry">
                        <mxPoint x="288" y="118.25" as="sourcePoint"/>
                    </mxGeometry>
                </mxCell>
                <mxCell id="134" value="Fields" style="rounded=1;whiteSpace=wrap;html=1;fontColor=#000000;strokeColor=#000000;fillColor=#FFFFFF;" vertex="1" parent="130">
                    <mxGeometry x="257.5" y="77" width="62" height="39" as="geometry"/>
                </mxCell>
                <mxCell id="135" style="edgeStyle=orthogonalEdgeStyle;html=1;exitX=1;exitY=0.5;exitDx=0;exitDy=0;fontColor=#000000;" edge="1" parent="130" target="138">
                    <mxGeometry relative="1" as="geometry">
                        <mxPoint x="319" y="98.75" as="sourcePoint"/>
                    </mxGeometry>
                </mxCell>
                <mxCell id="136" style="edgeStyle=orthogonalEdgeStyle;html=1;exitX=1;exitY=0.5;exitDx=0;exitDy=0;entryX=0.5;entryY=0;entryDx=0;entryDy=0;fontColor=#000000;" edge="1" parent="130" target="137">
                    <mxGeometry relative="1" as="geometry">
                        <mxPoint x="319" y="98.75" as="sourcePoint"/>
                    </mxGeometry>
                </mxCell>
                <mxCell id="222" value="Enum" style="edgeLabel;html=1;align=center;verticalAlign=middle;resizable=0;points=[];fontColor=#000000;labelBackgroundColor=#FFFFFF;" vertex="1" connectable="0" parent="136">
                    <mxGeometry x="-0.1107" relative="1" as="geometry">
                        <mxPoint as="offset"/>
                    </mxGeometry>
                </mxCell>
                <mxCell id="137" value="Open" style="whiteSpace=wrap;html=1;fillColor=#FFFFFF;strokeColor=#000000;fontColor=#000000;rounded=1;" vertex="1" parent="130">
                    <mxGeometry x="344" y="134.25" width="77" height="25.5" as="geometry"/>
                </mxCell>
                <mxCell id="138" value="Closed" style="whiteSpace=wrap;html=1;fillColor=#FFFFFF;strokeColor=#000000;fontColor=#000000;rounded=1;" vertex="1" parent="130">
                    <mxGeometry x="432" y="134.25" width="77" height="25.5" as="geometry"/>
                </mxCell>
                <mxCell id="139" value="Week No." style="whiteSpace=wrap;html=1;fillColor=#FFFFFF;strokeColor=#000000;fontColor=#000000;rounded=1;" vertex="1" parent="130">
                    <mxGeometry x="250" y="133.75" width="77" height="25.5" as="geometry"/>
                </mxCell>
                <mxCell id="140" value="Creating Date" style="whiteSpace=wrap;html=1;fillColor=#FFFFFF;strokeColor=#000000;fontColor=#000000;rounded=1;" vertex="1" parent="130">
                    <mxGeometry x="149" y="130.75" width="83" height="28.5" as="geometry"/>
                </mxCell>
                <mxCell id="141" value="Name" style="whiteSpace=wrap;html=1;fillColor=#FFFFFF;strokeColor=#000000;fontColor=#000000;rounded=1;" vertex="1" parent="130">
                    <mxGeometry x="60" y="130.75" width="81" height="28" as="geometry"/>
                </mxCell>
                <mxCell id="142" value="" style="edgeStyle=orthogonalEdgeStyle;html=1;fontColor=#000000;" edge="1" parent="130">
                    <mxGeometry relative="1" as="geometry">
                        <mxPoint x="257" y="98.79999999999995" as="sourcePoint"/>
                        <mxPoint x="98.5" y="131.25" as="targetPoint"/>
                    </mxGeometry>
                </mxCell>
                <mxCell id="143" style="edgeStyle=orthogonalEdgeStyle;html=1;exitX=0;exitY=0.5;exitDx=0;exitDy=0;entryX=0.5;entryY=0;entryDx=0;entryDy=0;fontColor=#000000;" edge="1" parent="130" target="140">
                    <mxGeometry relative="1" as="geometry">
                        <mxPoint x="257" y="98.75" as="sourcePoint"/>
                    </mxGeometry>
                </mxCell>
                <mxCell id="223" style="edgeStyle=orthogonalEdgeStyle;html=1;exitX=0.5;exitY=1;exitDx=0;exitDy=0;entryX=0.5;entryY=0;entryDx=0;entryDy=0;fontColor=#FFFFFF;" edge="1" parent="130" source="220" target="134">
                    <mxGeometry relative="1" as="geometry"/>
                </mxCell>
                <mxCell id="220" value="Header" style="whiteSpace=wrap;html=1;labelBackgroundColor=#FFFFFF;fontColor=#1A1A1A;strokeColor=#000000;fillColor=#FFFFFF;" vertex="1" parent="130">
                    <mxGeometry x="240.5" y="37" width="93" height="22.75" as="geometry"/>
                </mxCell>
                <mxCell id="221" value="" style="edgeStyle=orthogonalEdgeStyle;html=1;fontColor=#FFFFFF;" edge="1" parent="130" source="131" target="220">
                    <mxGeometry relative="1" as="geometry"/>
                </mxCell>
                <mxCell id="225" value="Manage Timesheet" style="text;html=1;align=center;verticalAlign=middle;resizable=0;points=[];autosize=1;strokeColor=none;fillColor=none;fontColor=#000000;labelBackgroundColor=#FFFFFF;" vertex="1" parent="130">
                    <mxGeometry x="232" y="177" width="120" height="20" as="geometry"/>
                </mxCell>
                <mxCell id="269" style="edgeStyle=orthogonalEdgeStyle;html=1;exitX=0;exitY=0.5;exitDx=0;exitDy=0;entryX=0.5;entryY=0;entryDx=0;entryDy=0;fontColor=#1A1A1A;" edge="1" parent="130" source="235" target="265">
                    <mxGeometry relative="1" as="geometry"/>
                </mxCell>
                <mxCell id="270" style="edgeStyle=orthogonalEdgeStyle;html=1;exitX=0;exitY=0.5;exitDx=0;exitDy=0;entryX=0.5;entryY=0;entryDx=0;entryDy=0;fontColor=#1A1A1A;" edge="1" parent="130" source="235" target="264">
                    <mxGeometry relative="1" as="geometry"/>
                </mxCell>
                <mxCell id="323" value="Enum" style="edgeLabel;html=1;align=center;verticalAlign=middle;resizable=0;points=[];fontColor=#1A1A1A;" vertex="1" connectable="0" parent="270">
                    <mxGeometry x="0.6447" y="1" relative="1" as="geometry">
                        <mxPoint as="offset"/>
                    </mxGeometry>
                </mxCell>
                <mxCell id="271" style="edgeStyle=orthogonalEdgeStyle;html=1;fontColor=#1A1A1A;" edge="1" parent="130" source="235" target="263">
                    <mxGeometry relative="1" as="geometry"/>
                </mxCell>
                <mxCell id="272" style="edgeStyle=orthogonalEdgeStyle;html=1;entryX=0.5;entryY=0;entryDx=0;entryDy=0;fontColor=#1A1A1A;" edge="1" parent="130" source="235" target="258">
                    <mxGeometry relative="1" as="geometry"/>
                </mxCell>
                <mxCell id="273" style="edgeStyle=orthogonalEdgeStyle;html=1;entryX=0.5;entryY=0;entryDx=0;entryDy=0;fontColor=#1A1A1A;" edge="1" parent="130" source="235" target="259">
                    <mxGeometry relative="1" as="geometry"/>
                </mxCell>
                <mxCell id="274" style="edgeStyle=orthogonalEdgeStyle;html=1;entryX=0.5;entryY=0;entryDx=0;entryDy=0;fontColor=#1A1A1A;" edge="1" parent="130" source="235" target="260">
                    <mxGeometry relative="1" as="geometry"/>
                </mxCell>
                <mxCell id="275" style="edgeStyle=orthogonalEdgeStyle;html=1;exitX=1;exitY=0.5;exitDx=0;exitDy=0;entryX=0.5;entryY=0;entryDx=0;entryDy=0;fontColor=#1A1A1A;" edge="1" parent="130" source="235" target="262">
                    <mxGeometry relative="1" as="geometry"/>
                </mxCell>
                <mxCell id="276" style="edgeStyle=orthogonalEdgeStyle;html=1;entryX=0.5;entryY=0;entryDx=0;entryDy=0;fontColor=#1A1A1A;" edge="1" parent="130" source="235" target="261">
                    <mxGeometry relative="1" as="geometry"/>
                </mxCell>
                <mxCell id="277" style="edgeStyle=orthogonalEdgeStyle;html=1;entryX=0.5;entryY=0;entryDx=0;entryDy=0;fontColor=#1A1A1A;" edge="1" parent="130" source="235" target="266">
                    <mxGeometry relative="1" as="geometry"/>
                </mxCell>
                <mxCell id="235" value="Fields" style="rounded=1;whiteSpace=wrap;html=1;fontColor=#000000;strokeColor=#000000;fillColor=#FFFFFF;" vertex="1" parent="130">
                    <mxGeometry x="257.5" y="247" width="62" height="39" as="geometry"/>
                </mxCell>
                <mxCell id="246" style="edgeStyle=orthogonalEdgeStyle;html=1;exitX=0.5;exitY=1;exitDx=0;exitDy=0;entryX=0.5;entryY=0;entryDx=0;entryDy=0;fontColor=#FFFFFF;" edge="1" source="247" target="235" parent="130">
                    <mxGeometry relative="1" as="geometry"/>
                </mxCell>
                <mxCell id="247" value="Line" style="whiteSpace=wrap;html=1;labelBackgroundColor=#FFFFFF;fontColor=#1A1A1A;strokeColor=#000000;fillColor=#FFFFFF;" vertex="1" parent="130">
                    <mxGeometry x="240.5" y="206" width="93" height="22.75" as="geometry"/>
                </mxCell>
                <mxCell id="258" value="Work Date" style="whiteSpace=wrap;html=1;fillColor=#FFFFFF;strokeColor=#000000;fontColor=#000000;rounded=1;" vertex="1" parent="130">
                    <mxGeometry x="226.5" y="318.75" width="60.5" height="25.5" as="geometry"/>
                </mxCell>
                <mxCell id="259" value="Day" style="whiteSpace=wrap;html=1;fillColor=#FFFFFF;strokeColor=#000000;fontColor=#000000;rounded=1;" vertex="1" parent="130">
                    <mxGeometry x="304" y="320.5" width="46" height="25.5" as="geometry"/>
                </mxCell>
                <mxCell id="260" value="Time In" style="whiteSpace=wrap;html=1;fillColor=#FFFFFF;strokeColor=#000000;fontColor=#000000;rounded=1;" vertex="1" parent="130">
                    <mxGeometry x="363" y="320.5" width="47" height="25.5" as="geometry"/>
                </mxCell>
                <mxCell id="261" value="Tasks" style="whiteSpace=wrap;html=1;fillColor=#FFFFFF;strokeColor=#000000;fontColor=#000000;rounded=1;" vertex="1" parent="130">
                    <mxGeometry x="490" y="320" width="35" height="25.5" as="geometry"/>
                </mxCell>
                <mxCell id="262" value="Time Out" style="whiteSpace=wrap;html=1;fillColor=#FFFFFF;strokeColor=#000000;fontColor=#000000;rounded=1;" vertex="1" parent="130">
                    <mxGeometry x="420" y="320.5" width="60" height="25.5" as="geometry"/>
                </mxCell>
                <mxCell id="263" value="Weeek No." style="whiteSpace=wrap;html=1;fillColor=#FFFFFF;strokeColor=#000000;fontColor=#000000;rounded=1;" vertex="1" parent="130">
                    <mxGeometry x="135" y="317.5" width="77" height="25.5" as="geometry"/>
                </mxCell>
                <mxCell id="264" value="Type" style="whiteSpace=wrap;html=1;fillColor=#FFFFFF;strokeColor=#000000;fontColor=#000000;rounded=1;" vertex="1" parent="130">
                    <mxGeometry x="77" y="317" width="50" height="28.5" as="geometry"/>
                </mxCell>
                <mxCell id="265" value="Name" style="whiteSpace=wrap;html=1;fillColor=#FFFFFF;strokeColor=#000000;fontColor=#000000;rounded=1;" vertex="1" parent="130">
                    <mxGeometry x="29" y="317.5" width="41" height="28" as="geometry"/>
                </mxCell>
                <mxCell id="266" value="Amount of Time" style="whiteSpace=wrap;html=1;fillColor=#FFFFFF;strokeColor=#000000;fontColor=#000000;rounded=1;" vertex="1" parent="130">
                    <mxGeometry x="534" y="317.5" width="71" height="28.75" as="geometry"/>
                </mxCell>
                <mxCell id="267" style="edgeStyle=orthogonalEdgeStyle;html=1;exitX=0.5;exitY=1;exitDx=0;exitDy=0;entryX=0.5;entryY=0;entryDx=0;entryDy=0;fontColor=#FFFFFF;" edge="1" parent="130" source="220" target="134">
                    <mxGeometry relative="1" as="geometry">
                        <mxPoint x="1077" y="542.75" as="sourcePoint"/>
                        <mxPoint x="1078.5" y="560" as="targetPoint"/>
                        <Array as="points">
                            <mxPoint x="289" y="60"/>
                        </Array>
                    </mxGeometry>
                </mxCell>
                <mxCell id="278" value="Actions" style="swimlane;startSize=20;horizontal=0;fontColor=#000000;strokeColor=#000000;fillColor=#FFFFFF;" vertex="1" parent="113">
                    <mxGeometry y="560" width="610" height="380" as="geometry"/>
                </mxCell>
                <mxCell id="279" value="Manage Timesheet" style="text;html=1;align=center;verticalAlign=middle;resizable=0;points=[];autosize=1;strokeColor=none;fillColor=none;fontColor=#000000;labelBackgroundColor=#FFFFFF;" vertex="1" parent="278">
                    <mxGeometry x="227" y="4.25" width="120" height="20" as="geometry"/>
                </mxCell>
                <mxCell id="281" value="Action" style="rounded=1;whiteSpace=wrap;html=1;fontColor=#000000;strokeColor=#000000;fillColor=#FFFFFF;" vertex="1" parent="278">
                    <mxGeometry x="257.5" y="77" width="62" height="39" as="geometry"/>
                </mxCell>
                <mxCell id="292" style="edgeStyle=orthogonalEdgeStyle;html=1;exitX=0.5;exitY=1;exitDx=0;exitDy=0;entryX=0.5;entryY=0;entryDx=0;entryDy=0;fontColor=#FFFFFF;" edge="1" parent="278" source="293" target="281">
                    <mxGeometry relative="1" as="geometry"/>
                </mxCell>
                <mxCell id="293" value="Header" style="whiteSpace=wrap;html=1;labelBackgroundColor=#FFFFFF;fontColor=#1A1A1A;strokeColor=#000000;fillColor=#FFFFFF;" vertex="1" parent="278">
                    <mxGeometry x="240.5" y="37" width="93" height="22.75" as="geometry"/>
                </mxCell>
                <mxCell id="294" value="" style="edgeStyle=orthogonalEdgeStyle;html=1;fontColor=#FFFFFF;" edge="1" parent="278" source="279" target="293">
                    <mxGeometry relative="1" as="geometry"/>
                </mxCell>
                <mxCell id="295" value="Manage Timesheet" style="text;html=1;align=center;verticalAlign=middle;resizable=0;points=[];autosize=1;strokeColor=none;fillColor=none;fontColor=#000000;labelBackgroundColor=#FFFFFF;" vertex="1" parent="278">
                    <mxGeometry x="232" y="177" width="120" height="20" as="geometry"/>
                </mxCell>
                <mxCell id="321" style="edgeStyle=orthogonalEdgeStyle;html=1;entryX=0.5;entryY=0;entryDx=0;entryDy=0;fontColor=#1A1A1A;" edge="1" parent="278" source="305" target="309">
                    <mxGeometry relative="1" as="geometry"/>
                </mxCell>
                <mxCell id="322" style="edgeStyle=orthogonalEdgeStyle;html=1;exitX=0.5;exitY=1;exitDx=0;exitDy=0;entryX=0.5;entryY=0;entryDx=0;entryDy=0;fontColor=#1A1A1A;" edge="1" parent="278" source="305" target="308">
                    <mxGeometry relative="1" as="geometry"/>
                </mxCell>
                <mxCell id="305" value="Action" style="rounded=1;whiteSpace=wrap;html=1;fontColor=#000000;strokeColor=#000000;fillColor=#FFFFFF;" vertex="1" parent="278">
                    <mxGeometry x="257.5" y="247" width="62" height="39" as="geometry"/>
                </mxCell>
                <mxCell id="306" style="edgeStyle=orthogonalEdgeStyle;html=1;exitX=0.5;exitY=1;exitDx=0;exitDy=0;entryX=0.5;entryY=0;entryDx=0;entryDy=0;fontColor=#FFFFFF;" edge="1" parent="278" source="307" target="305">
                    <mxGeometry relative="1" as="geometry"/>
                </mxCell>
                <mxCell id="307" value="Line" style="whiteSpace=wrap;html=1;labelBackgroundColor=#FFFFFF;fontColor=#1A1A1A;strokeColor=#000000;fillColor=#FFFFFF;" vertex="1" parent="278">
                    <mxGeometry x="240.5" y="206" width="93" height="22.75" as="geometry"/>
                </mxCell>
                <mxCell id="308" value="Import" style="whiteSpace=wrap;html=1;fillColor=#FFFFFF;strokeColor=#000000;fontColor=#000000;rounded=1;" vertex="1" parent="278">
                    <mxGeometry x="210" y="320.5" width="60.5" height="25.5" as="geometry"/>
                </mxCell>
                <mxCell id="309" value="Export" style="whiteSpace=wrap;html=1;fillColor=#FFFFFF;strokeColor=#000000;fontColor=#000000;rounded=1;" vertex="1" parent="278">
                    <mxGeometry x="304" y="320.5" width="66" height="25.5" as="geometry"/>
                </mxCell>
                <mxCell id="317" style="edgeStyle=orthogonalEdgeStyle;html=1;exitX=0.5;exitY=1;exitDx=0;exitDy=0;entryX=0.5;entryY=0;entryDx=0;entryDy=0;fontColor=#FFFFFF;" edge="1" parent="278" source="293" target="281">
                    <mxGeometry relative="1" as="geometry">
                        <mxPoint x="1077" y="542.75" as="sourcePoint"/>
                        <mxPoint x="1078.5" y="560" as="targetPoint"/>
                        <Array as="points">
                            <mxPoint x="289" y="60"/>
                        </Array>
                    </mxGeometry>
                </mxCell>
                <mxCell id="318" value="Submit Timesheet" style="whiteSpace=wrap;html=1;fillColor=#FFFFFF;strokeColor=#000000;fontColor=#000000;rounded=1;" vertex="1" parent="278">
                    <mxGeometry x="227.75" y="137" width="121.5" height="31.5" as="geometry"/>
                </mxCell>
                <mxCell id="319" value="" style="edgeStyle=orthogonalEdgeStyle;html=1;fontColor=#1A1A1A;" edge="1" parent="278" source="281" target="318">
                    <mxGeometry relative="1" as="geometry"/>
                </mxCell>
                <mxCell id="367" value="Manage Timesheet" style="swimlane;childLayout=stackLayout;resizeParent=1;resizeParentMax=0;horizontal=1;startSize=20;horizontalStack=0;fontColor=#000000;strokeColor=#000000;fillColor=#FFFFFF;" vertex="1" parent="1">
                    <mxGeometry x="290" y="1063" width="329" height="160" as="geometry"/>
                </mxCell>
                <mxCell id="368" value="Codeunite" style="swimlane;startSize=20;horizontal=0;fontColor=#000000;strokeColor=#000000;fillColor=#FFFFFF;" vertex="1" parent="367">
                    <mxGeometry y="20" width="329" height="140" as="geometry"/>
                </mxCell>
                <mxCell id="375" value="ImportExcelData" style="rounded=1;whiteSpace=wrap;html=1;fontColor=#000000;strokeColor=#000000;fillColor=#FFFFFF;" vertex="1" parent="368">
                    <mxGeometry x="29" y="10" width="171" height="39" as="geometry"/>
                </mxCell>
                <mxCell id="409" value="ExportExcelData" style="rounded=1;whiteSpace=wrap;html=1;fontColor=#000000;strokeColor=#000000;fillColor=#FFFFFF;" vertex="1" parent="368">
                    <mxGeometry x="29" y="80" width="171" height="39" as="geometry"/>
                </mxCell>
                <mxCell id="407" style="edgeStyle=orthogonalEdgeStyle;html=1;exitX=1;exitY=0.5;exitDx=0;exitDy=0;entryX=0;entryY=0.5;entryDx=0;entryDy=0;fontColor=#1A1A1A;" edge="1" parent="1" source="368" target="278">
                    <mxGeometry relative="1" as="geometry"/>
                </mxCell>
                <mxCell id="408" value="Manage Actions" style="edgeLabel;html=1;align=center;verticalAlign=middle;resizable=0;points=[];fontColor=#000000;labelBackgroundColor=#FFFFFF;" vertex="1" connectable="0" parent="407">
                    <mxGeometry x="0.114" y="1" relative="1" as="geometry">
                        <mxPoint as="offset"/>
                    </mxGeometry>
                </mxCell>
                <mxCell id="411" value="TimeSheetFactBox" style="swimlane;childLayout=stackLayout;resizeParent=1;resizeParentMax=0;horizontal=1;startSize=20;horizontalStack=0;fontColor=#000000;strokeColor=#000000;fillColor=#FFFFFF;" vertex="1" parent="1">
                    <mxGeometry x="290" y="803" width="329" height="150" as="geometry"/>
                </mxCell>
                <mxCell id="412" value="FactBox" style="swimlane;startSize=20;horizontal=0;fontColor=#000000;strokeColor=#000000;fillColor=#FFFFFF;" vertex="1" parent="411">
                    <mxGeometry y="20" width="329" height="130" as="geometry"/>
                </mxCell>
                <mxCell id="413" value="WeekDays" style="rounded=1;whiteSpace=wrap;html=1;fontColor=#000000;strokeColor=#000000;fillColor=#FFFFFF;" vertex="1" parent="412">
                    <mxGeometry x="29" y="10" width="171" height="39" as="geometry"/>
                </mxCell>
                <mxCell id="414" value="Total Hours" style="rounded=1;whiteSpace=wrap;html=1;fontColor=#000000;strokeColor=#000000;fillColor=#FFFFFF;" vertex="1" parent="412">
                    <mxGeometry x="29" y="74" width="171" height="39" as="geometry"/>
                </mxCell>
                <mxCell id="417" style="edgeStyle=orthogonalEdgeStyle;html=1;exitX=1;exitY=0.5;exitDx=0;exitDy=0;entryX=0;entryY=0.75;entryDx=0;entryDy=0;fontColor=#1A1A1A;" edge="1" parent="1" source="412" target="130">
                    <mxGeometry relative="1" as="geometry"/>
                </mxCell>
                <mxCell id="418" value="Part Page" style="edgeLabel;html=1;align=center;verticalAlign=middle;resizable=0;points=[];fontColor=#1A1A1A;labelBackgroundColor=#FFFFFF;" vertex="1" connectable="0" parent="417">
                    <mxGeometry x="-0.168" y="-2" relative="1" as="geometry">
                        <mxPoint as="offset"/>
                    </mxGeometry>
                </mxCell>
            </root>
        </mxGraphModel>
    </diagram>
</mxfile>